<svg width="93" height="46" viewBox="0 0 93 46" fill="none" xmlns="http://www.w3.org/2000/svg">
<g clip-path="url(#clip0_41_15)" filter="url(#filter0_d_41_15)">
<path fill-rule="evenodd" clip-rule="evenodd" d="M79.6328 28.431L74.574 22.9379C74.2257 22.6261 73.1557 22.7787 72.5653 22.7787C71.8101 22.7787 68.805 22.6821 68.3097 22.8404C68.3694 22.8712 75.4792 30.5366 75.6885 30.9048C74.8212 31.4907 71.791 32.0956 70.5002 32.1203C68.473 32.1592 66.6662 31.8432 64.938 31.2069C61.7489 30.0327 59.3963 27.6969 57.8766 25.2734C55.2093 21.0191 55.5048 14.6514 58.8663 10.3178C62.0742 6.18205 67.1351 4.26531 72.6838 5.20637C76.6289 5.87551 79.1019 7.86398 80.9549 9.93403C81.3985 10.4295 81.8815 11.1772 82.2683 11.828C82.6956 12.5469 82.9835 13.1719 83.2861 14.0281C83.8705 15.6812 84.1338 17.8612 83.9494 19.7521C83.6886 22.4267 82.7549 24.7637 81.2008 26.7348C80.8452 27.1858 79.9849 28.2376 79.6326 28.4311L79.6328 28.431ZM83.078 32.0205C84.4102 30.9162 86.0007 28.8343 86.9783 26.9166C88.0645 24.7863 88.6885 22.6165 88.9217 19.9085C89.4507 13.7629 87.2226 9.62159 84.4799 6.44784C83.6941 5.53861 83.0496 5.07637 82.1447 4.27827C81.2941 3.52796 80.5334 3.08625 79.5354 2.46593C77.8208 1.40038 75.2532 0.553034 72.8736 0.230745C67.1384 -0.545899 62.3881 1.05829 58.7718 3.67423C55.8236 5.80689 52.6243 9.41074 51.554 14.3362C49.4507 24.0152 55.2357 33.5498 64.4912 36.2834C68.2853 37.4039 72.3623 37.2781 76.1357 36.0145C77.2428 35.6437 78.7247 34.9526 79.2881 34.776C79.7714 35.2075 80.2778 35.8667 80.7822 36.3732C81.3505 36.944 81.8003 37.4168 82.2552 38.0001L88.358 37.9867C88.1769 37.5448 87.4047 36.856 87.0017 36.4472C86.5894 36.0288 86.0737 35.4511 85.6792 34.9936C85.2287 34.4708 84.798 34.0424 84.3621 33.5338C84.0042 33.1163 83.2552 32.484 83.0781 32.0207L83.078 32.0205Z" fill="black"/>
<path fill-rule="evenodd" clip-rule="evenodd" d="M14.6011 23.089C14.6111 22.9152 19.5959 11.4846 19.9901 10.8731C20.2271 11.1417 25.4498 22.8439 25.4657 23.0961L14.6011 23.0889V23.089ZM12.7653 27.0824L27.318 27.0779L31.3049 35.9358L36.1563 35.9221L34.1798 31.4558C32.216 26.9861 30.0619 22.4292 28.1227 17.9571C27.4713 16.455 26.7898 14.9083 26.0993 13.4619C25.3885 11.9731 24.7724 10.4039 24.0831 8.96497C23.3757 7.48829 22.7065 5.95864 22.0557 4.46672C21.8974 4.10348 20.3017 0.27375 19.947 -0.000335693L3.99994 35.926L8.83207 35.9195L12.7652 27.0822L12.7653 27.0824Z" fill="black"/>
<path fill-rule="evenodd" clip-rule="evenodd" d="M40.4504 35.9414L45.0669 35.929L45.0483 1.16464L40.425 1.17957L40.4504 35.9414Z" fill="black"/>
</g>
<defs>
<filter id="filter0_d_41_15" x="0" y="0" width="93" height="46" filterUnits="userSpaceOnUse" color-interpolation-filters="sRGB">
<feFlood flood-opacity="0" result="BackgroundImageFix"/>
<feColorMatrix in="SourceAlpha" type="matrix" values="0 0 0 0 0 0 0 0 0 0 0 0 0 0 0 0 0 0 127 0" result="hardAlpha"/>
<feOffset dy="4"/>
<feGaussianBlur stdDeviation="2"/>
<feComposite in2="hardAlpha" operator="out"/>
<feColorMatrix type="matrix" values="0 0 0 0 0 0 0 0 0 0 0 0 0 0 0 0 0 0 0.25 0"/>
<feBlend mode="normal" in2="BackgroundImageFix" result="effect1_dropShadow_41_15"/>
<feBlend mode="normal" in="SourceGraphic" in2="effect1_dropShadow_41_15" result="shape"/>
</filter>
<clipPath id="clip0_41_15">
<rect width="85" height="38" fill="white" transform="translate(4)"/>
</clipPath>
</defs>
</svg>
