<?xml version="1.0" encoding="UTF-8"?>
<!DOCTYPE svg PUBLIC "-//W3C//DTD SVG 1.1//EN" "http://www.w3.org/Graphics/SVG/1.1/DTD/svg11.dtd">
<!-- Creator: CorelDRAW 2018 (64-Bit Evaluation Version) -->
<svg xmlns="http://www.w3.org/2000/svg" xml:space="preserve" width="8.83746in" height="3.90204in" version="1.1" style="shape-rendering:geometricPrecision; text-rendering:geometricPrecision; image-rendering:optimizeQuality; fill-rule:evenodd; clip-rule:evenodd"
viewBox="0 0 8302.22 3665.72"
 xmlns:xlink="http://www.w3.org/1999/xlink">
 <defs>
  <style type="text/css">
   <![CDATA[
    .fil0 {fill:#201E1E}
   ]]>
  </style>
 </defs>
 <g id="Layer_x0020_1">
  <metadata id="CorelCorpID_0Corel-Layer"/>
  <g id="_1851541150736">
   <path class="fil0" d="M7387.31 2742.63l-494.11 -529.89c-34.02,-30.08 -138.53,-15.36 -196.2,-15.36 -73.76,0 -367.28,-9.32 -415.66,5.95 5.83,2.97 700.27,742.42 720.71,777.94 -84.71,56.52 -380.68,114.87 -506.76,117.26 -198,3.75 -374.48,-26.73 -543.27,-88.11 -311.49,-113.28 -541.28,-338.6 -689.71,-572.39 -260.53,-410.39 -231.67,-1024.66 96.66,-1442.71 313.33,-398.96 807.64,-583.86 1349.6,-493.08 385.34,64.55 626.88,256.37 807.87,456.06 43.33,47.8 90.5,119.92 128.28,182.7 41.74,69.35 69.86,129.65 99.42,212.24 57.08,159.47 82.79,369.76 64.78,552.17 -25.47,258.01 -116.67,483.45 -268.46,673.6 -34.73,43.5 -118.76,144.97 -153.17,163.63zm336.5 346.27c130.12,-106.53 285.47,-307.36 380.96,-492.35 106.09,-205.51 167.04,-414.82 189.81,-676.05 51.67,-592.84 -165.95,-992.34 -433.84,-1298.5 -76.75,-87.71 -139.7,-132.3 -228.09,-209.29 -83.08,-72.38 -157.38,-114.99 -254.86,-174.83 -167.47,-102.79 -418.25,-184.53 -650.68,-215.62 -560.17,-74.92 -1024.15,79.83 -1377.37,332.18 -287.96,205.73 -600.44,553.38 -704.98,1028.52 -205.44,933.7 359.6,1853.47 1263.62,2117.17 370.58,108.09 768.79,95.95 1137.35,-25.94 108.14,-35.77 252.88,-102.44 307.91,-119.48 47.2,41.63 96.67,105.22 145.93,154.08 55.51,55.06 99.44,100.67 143.87,156.94l596.09 -1.29c-17.69,-42.63 -93.12,-109.08 -132.48,-148.51 -40.27,-40.36 -90.64,-96.09 -129.17,-140.23 -44,-50.43 -86.07,-91.75 -128.65,-140.82 -34.95,-40.27 -108.11,-101.27 -125.41,-145.96z"/>
   <path class="fil0" d="M1035.44 2227.32c0.98,-16.76 487.86,-1119.43 526.36,-1178.42 23.15,25.91 533.27,1154.78 534.82,1179.11l-1061.18 -0.7zm-179.31 385.23l1421.41 -0.43 389.42 854.49 473.85 -1.33 -193.05 -430.84c-191.81,-431.18 -402.21,-870.77 -591.62,-1302.17 -63.62,-144.9 -130.19,-294.11 -197.63,-433.64 -69.43,-143.62 -129.6,-294.99 -196.93,-433.8 -69.09,-142.45 -134.46,-290.01 -198.02,-433.93 -15.47,-35.04 -171.32,-404.48 -205.97,-430.92l-1557.6 3465.68 471.97 -0.63 384.16 -852.5z"/>
   <polygon class="fil0" points="3560.23,3467.14 4011.14,3465.94 4009.32,112.35 3557.75,113.79 "/>
  </g>
 </g>
</svg>
